<svg width="26" height="21" viewBox="0 0 26 21" fill="none" xmlns="http://www.w3.org/2000/svg">
<g clip-path="url(#clip0_1_33)">
<g clip-path="url(#clip1_1_33)">
<path d="M15 15.6699C15 16.7749 14.105 17.6699 13 17.6699C11.895 17.6699 11 16.7749 11 15.6699C11 14.5649 11.895 13.6699 13 13.6699C14.105 13.6699 15 14.5649 15 15.6699Z" fill="black"/>
<path d="M25 5.66992C25 6.77492 24.105 7.66992 23 7.66992C21.895 7.66992 21 6.77492 21 5.66992C21 4.56492 21.895 3.66992 23 3.66992C24.105 3.66992 25 4.56492 25 5.66992Z" fill="black"/>
<path d="M20 10.6699C20 11.7749 19.105 12.6699 18 12.6699C16.895 12.6699 16 11.7749 16 10.6699C16 9.56492 16.895 8.66992 18 8.66992C19.105 8.66992 20 9.56492 20 10.6699Z" fill="black"/>
<path d="M5 5.66992C5 6.77492 4.105 7.66992 3 7.66992C1.895 7.66992 1 6.77492 1 5.66992C1 4.56492 1.895 3.66992 3 3.66992C4.105 3.66992 5 4.56492 5 5.66992Z" fill="black"/>
<path d="M10 10.6699C10 11.7749 9.105 12.6699 8 12.6699C6.895 12.6699 6 11.7749 6 10.6699C6 9.56492 6.895 8.66992 8 8.66992C9.105 8.66992 10 9.56492 10 10.6699Z" fill="black"/>
</g>
</g>
<defs>
<clipPath id="clip0_1_33">
<rect width="20" height="26" fill="white" transform="matrix(0 1 -1 0 26 0.169983)"/>
</clipPath>
<clipPath id="clip1_1_33">
<rect width="19" height="26" fill="white" transform="matrix(0 1 -1 0 26 0.669983)"/>
</clipPath>
</defs>
</svg>
