<svg width="93" height="59" viewBox="0 0 93 59" fill="none" xmlns="http://www.w3.org/2000/svg">
<g clip-path="url(#clip0_159_58)">
<path d="M63.16 0C49.33 0 37.74 9.7 34.77 22.65C31.07 19.16 26.11 17.01 20.64 17.01C9.26 17.01 0 26.27 0 37.65C0 49.03 9.26 58.29 20.64 58.29H63.16C79.23 58.29 92.3 45.22 92.3 29.15C92.3 13.08 79.23 0 63.16 0ZM34.02 51.03H20.64C13.26 51.03 7.26 45.03 7.26 37.65C7.26 30.27 13.26 24.27 20.64 24.27C28.02 24.27 34.02 30.27 34.02 37.65V51.03ZM63.17 51.03H41.29V29.15C41.29 17.08 51.11 7.27 63.17 7.27C75.23 7.27 85.05 17.09 85.05 29.15C85.05 41.21 75.23 51.03 63.17 51.03Z" fill="#495AA1"/>
</g>
<defs>
<clipPath id="clip0_159_58">
<rect width="92.31" height="58.29" fill="white"/>
</clipPath>
</defs>
</svg>
