<svg width="171" height="116" viewBox="0 0 171 116" fill="none" xmlns="http://www.w3.org/2000/svg">
<g clip-path="url(#clip0_159_49)">
<path d="M33.19 103.03C33.19 109.78 28.05 114.61 21.24 114.61H0V71.89H19.57C25.89 71.89 30.72 76.47 30.72 82.66C30.72 86.75 28.61 90.28 25.64 91.89C30.1 93.25 33.19 97.83 33.19 103.03ZM7.12 78.52V89.42H17.77C20.74 89.42 23.16 87.07 23.16 83.97C23.16 80.87 20.87 78.52 17.77 78.52H7.12ZM25.57 101.8C25.57 98.33 22.97 95.67 19.5 95.67H7.12V107.99H19.5C22.97 107.99 25.57 105.27 25.57 101.8Z" fill="#495AA1"/>
<path d="M70.9601 107.93V114.62H68.9201C64.6501 114.62 61.9201 112.95 60.9301 109.79C58.5801 113.38 54.9901 115.36 50.4001 115.36C43.1601 115.36 38.3301 110.53 38.3301 103.16V83.04H45.2601V101.12C45.2601 105.64 48.1701 108.67 52.6301 108.67C57.3401 108.67 60.4901 105.57 60.4901 100.99V83.03H67.4301V105.01C67.4301 106.81 68.5401 107.92 70.3401 107.92H70.9601V107.93Z" fill="#495AA1"/>
<path d="M99.64 107.93V114.62H97.47C92.76 114.62 88.55 113.07 85.15 110.35C82.8 112.08 80.2 113.57 77.41 114.62L74.75 109.05C76.92 108.12 78.9 106.88 80.69 105.46C77.28 100.51 75.37 93.88 75.37 86.33C75.37 75.31 80.01 69.3 87.13 69.3C93.88 69.3 98.28 74.81 98.28 84.22C98.28 91.96 95.37 99.51 90.35 105.4C92.52 107.01 95.06 107.94 97.9 107.94H99.63L99.64 107.93ZM82.49 85.83C82.49 91.34 83.67 96.29 85.83 100.13C89.24 95.55 91.15 89.98 91.15 84.22C91.15 78.96 89.54 75.98 86.94 75.98C84.34 75.98 82.48 79.14 82.48 85.83" fill="#495AA1"/>
<path d="M137.16 107.93V114.62H135.12C130.85 114.62 128.12 112.95 127.13 109.79C124.78 113.38 121.19 115.36 116.6 115.36C109.36 115.36 104.53 110.53 104.53 103.16V83.04H111.46V101.12C111.46 105.64 114.37 108.67 118.83 108.67C123.54 108.67 126.69 105.57 126.69 100.99V83.03H133.63V105.01C133.63 106.81 134.74 107.92 136.54 107.92H137.16V107.93Z" fill="#495AA1"/>
<path d="M152.34 89.35V103.78C152.34 106.57 154.07 108.24 156.98 108.24H160.14V114.62H155.99C149.12 114.62 145.4 111.15 145.4 104.9V89.36H140.08V83.04H143.3C144.91 83.04 145.78 82.17 145.78 80.56V74.49H152.34V83.03H160.14V89.35H152.34Z" fill="#495AA1"/>
<path d="M97.0799 0C83.2499 0 71.6599 9.7 68.6899 22.65C64.9899 19.16 60.0299 17.01 54.5599 17.01C43.1799 17.01 33.9199 26.27 33.9199 37.65C33.9199 49.03 43.1799 58.29 54.5599 58.29H97.0799C113.15 58.29 126.22 45.22 126.22 29.15C126.22 13.08 113.15 0 97.0799 0ZM67.9399 51.03H54.5599C47.1799 51.03 41.1799 45.03 41.1799 37.65C41.1799 30.27 47.1799 24.27 54.5599 24.27C61.9399 24.27 67.9399 30.27 67.9399 37.65V51.03ZM97.0899 51.03H75.2099V29.15C75.2099 17.08 85.0299 7.27 97.0899 7.27C109.15 7.27 118.97 17.09 118.97 29.15C118.97 41.21 109.15 51.03 97.0899 51.03Z" fill="#495AA1"/>
<path d="M165.3 74.49C162.45 74.49 160.14 72.18 160.14 69.33C160.14 66.48 162.46 64.17 165.3 64.17C168.14 64.17 170.46 66.48 170.46 69.33C170.46 72.18 168.15 74.49 165.3 74.49ZM165.3 65.11C162.97 65.11 161.08 67 161.08 69.33C161.08 71.66 162.97 73.55 165.3 73.55C167.63 73.55 169.52 71.66 169.52 69.33C169.52 67 167.63 65.11 165.3 65.11Z" fill="#495AA1"/>
<path d="M166.31 71.52L165.45 70.28H164.5V71.52H163.47V67.07H165.4C165.79 67.07 166.14 67.14 166.43 67.27C166.72 67.4 166.94 67.59 167.1 67.83C167.26 68.07 167.34 68.36 167.34 68.69C167.34 69.02 167.26 69.31 167.1 69.55C166.94 69.79 166.72 69.97 166.42 70.1L167.42 71.53H166.31V71.52ZM166.05 68.11C165.89 67.98 165.65 67.91 165.34 67.91H164.5V69.46H165.34C165.65 69.46 165.88 69.39 166.05 69.26C166.21 69.12 166.29 68.93 166.29 68.69C166.29 68.45 166.21 68.25 166.05 68.11Z" fill="#495AA1"/>
</g>
<defs>
<clipPath id="clip0_159_49">
<rect width="170.46" height="115.36" fill="white"/>
</clipPath>
</defs>
</svg>
