<svg width="136" height="59" viewBox="0 0 136 59" fill="none" xmlns="http://www.w3.org/2000/svg">
<path d="M26.4803 31.0467C26.4803 36.4395 22.3794 40.2984 16.9461 40.2984H0V6.16782H15.6137C20.6561 6.16782 24.5097 9.82695 24.5097 14.7724C24.5097 18.04 22.8262 20.8603 20.4566 22.1465C24.015 23.2331 26.4803 26.8922 26.4803 31.0467ZM5.68063 11.4648V20.1732H14.1776C16.5472 20.1732 18.478 18.2957 18.478 15.819C18.478 13.3423 16.6509 11.4648 14.1776 11.4648H5.68063ZM20.4008 30.064C20.4008 27.2917 18.3264 25.1665 15.5579 25.1665H5.68063V35.0094H15.5579C18.3264 35.0094 20.4008 32.8363 20.4008 30.064Z" fill="#495AA1"/>
<path d="M56.6149 34.9615V40.3064H54.9873C51.5805 40.3064 49.4024 38.9722 48.6125 36.4476C46.7376 39.3158 43.8733 40.8976 40.2112 40.8976C34.4349 40.8976 30.5813 37.0388 30.5813 31.1506V15.076H36.1103V29.5208C36.1103 33.132 38.4321 35.5528 41.9904 35.5528C45.7483 35.5528 48.2615 33.0761 48.2615 29.4169V15.068H53.7985V32.6287C53.7985 34.0667 54.6841 34.9536 56.1202 34.9536H56.6149V34.9615Z" fill="#495AA1"/>
<path d="M79.4968 34.9616V40.3064H77.7655C74.0077 40.3064 70.6488 39.0681 67.9361 36.895C66.0612 38.2771 63.9868 39.4676 61.7608 40.3064L59.6385 35.8564C61.3699 35.1134 62.9496 34.1227 64.3777 32.9882C61.6571 29.0334 60.1332 23.7365 60.1332 17.7045C60.1332 8.90025 63.8352 4.09865 69.5158 4.09865C74.9012 4.09865 78.4117 8.50079 78.4117 16.0188C78.4117 22.2025 76.09 28.2345 72.0849 32.9402C73.8162 34.2265 75.8427 34.9695 78.1086 34.9695H79.4888L79.4968 34.9616ZM65.8138 17.3051C65.8138 21.7072 66.7553 25.6619 68.4786 28.7298C71.1993 25.0707 72.7231 20.6206 72.7231 16.0188C72.7231 11.8164 71.4386 9.43554 69.3642 9.43554C67.2898 9.43554 65.8059 11.9602 65.8059 17.3051" fill="#495AA1"/>
<path d="M109.432 34.9615V40.3064H107.804C104.397 40.3064 102.219 38.9722 101.43 36.4476C99.5546 39.3158 96.6903 40.8976 93.0283 40.8976C87.2519 40.8976 83.3983 37.0388 83.3983 31.1506V15.076H88.9274V29.5208C88.9274 33.132 91.2491 35.5528 94.8074 35.5528C98.5653 35.5528 101.078 33.0761 101.078 29.4169V15.068H106.615V32.6287C106.615 34.0667 107.501 34.9536 108.937 34.9536H109.432V34.9615Z" fill="#495AA1"/>
<path d="M121.543 20.1172V31.6459C121.543 33.8749 122.923 35.2091 125.245 35.2091H127.766V40.3064H124.455C118.974 40.3064 116.006 37.534 116.006 32.5407V20.1252H111.762V15.0759H114.331C115.615 15.0759 116.309 14.3809 116.309 13.0946V8.24504H121.543V15.068H127.766V20.1172H121.543Z" fill="#495AA1"/>
<path d="M131.883 8.24502C129.609 8.24502 127.766 6.39948 127.766 4.12251C127.766 1.84555 129.617 0 131.883 0C134.149 0 136 1.84555 136 4.12251C136 6.39948 134.157 8.24502 131.883 8.24502ZM131.883 0.751002C130.024 0.751002 128.516 2.26099 128.516 4.12251C128.516 5.98403 130.024 7.49402 131.883 7.49402C133.742 7.49402 135.25 5.98403 135.25 4.12251C135.25 2.26099 133.742 0.751002 131.883 0.751002Z" fill="#495AA1"/>
<path d="M132.689 5.8722L132.003 4.88152H131.245V5.8722H130.423V2.31693H131.963C132.274 2.31693 132.553 2.37286 132.785 2.47672C133.016 2.58058 133.192 2.73238 133.319 2.92413C133.447 3.11587 133.511 3.34756 133.511 3.61121C133.511 3.87486 133.447 4.10655 133.319 4.2983C133.192 4.49004 133.016 4.63385 132.777 4.73771L133.575 5.88019H132.689V5.8722ZM132.482 3.14783C132.354 3.04397 132.162 2.98804 131.915 2.98804H131.245V4.22639H131.915C132.162 4.22639 132.346 4.17047 132.482 4.06661C132.609 3.95475 132.673 3.80296 132.673 3.61121C132.673 3.41947 132.609 3.25968 132.482 3.14783Z" fill="#495AA1"/>
<path d="M105.117 52.8441C105.085 52.5446 104.95 52.3114 104.712 52.1445C104.477 51.9776 104.17 51.8941 103.793 51.8941C103.528 51.8941 103.301 51.9342 103.111 52.0142C102.921 52.0942 102.776 52.2028 102.675 52.34C102.575 52.4771 102.523 52.6337 102.521 52.8098C102.521 52.9561 102.554 53.083 102.62 53.1904C102.689 53.2979 102.782 53.3893 102.898 53.4648C103.015 53.5379 103.144 53.5996 103.286 53.6499C103.427 53.7002 103.57 53.7425 103.714 53.7768L104.373 53.9414C104.638 54.0031 104.893 54.0866 105.137 54.1918C105.384 54.2969 105.605 54.4295 105.799 54.5895C105.996 54.7496 106.151 54.9428 106.266 55.1691C106.38 55.3954 106.437 55.6606 106.437 55.9647C106.437 56.3762 106.332 56.7386 106.122 57.0518C105.911 57.3627 105.607 57.6062 105.21 57.7822C104.814 57.9559 104.335 58.0428 103.773 58.0428C103.226 58.0428 102.752 57.9582 102.35 57.7891C101.949 57.6199 101.636 57.373 101.41 57.0483C101.186 56.7237 101.065 56.3282 101.046 55.8618H102.298C102.316 56.1064 102.392 56.3099 102.524 56.4722C102.657 56.6345 102.83 56.7557 103.042 56.8357C103.257 56.9157 103.497 56.9557 103.762 56.9557C104.039 56.9557 104.281 56.9146 104.489 56.8323C104.7 56.7477 104.864 56.6311 104.983 56.4825C105.102 56.3316 105.163 56.1556 105.165 55.9544C105.163 55.7715 105.109 55.6206 105.004 55.5017C104.899 55.3806 104.751 55.28 104.561 55.2C104.374 55.1177 104.154 55.0445 103.903 54.9805L103.104 54.7747C102.526 54.6261 102.068 54.4009 101.732 54.0992C101.398 53.7951 101.232 53.3916 101.232 52.8886C101.232 52.4748 101.344 52.1125 101.568 51.8016C101.794 51.4906 102.101 51.2494 102.49 51.078C102.879 50.9042 103.319 50.8174 103.81 50.8174C104.309 50.8174 104.745 50.9042 105.12 51.078C105.498 51.2494 105.794 51.4884 106.009 51.7947C106.223 52.0988 106.334 52.4485 106.341 52.8441H105.117Z" fill="#495AA1"/>
<path d="M95.8306 57.9365V50.9134H97.1028V56.87H100.196V57.9365H95.8306Z" fill="#495AA1"/>
<path d="M89.7445 57.9365H88.3865L90.859 50.9134H92.4296L94.9055 57.9365H93.5475L91.6717 52.3537H91.6168L89.7445 57.9365ZM89.789 55.1828H93.4926V56.2047H89.789V55.1828Z" fill="#495AA1"/>
<path d="M87.4649 50.9134V57.9365H86.1926V50.9134H87.4649Z" fill="#495AA1"/>
<path d="M79.9119 57.9365V50.9134H82.5455C83.0851 50.9134 83.5377 51.0071 83.9035 51.1946C84.2716 51.382 84.5494 51.645 84.7368 51.9833C84.9266 52.3194 85.0215 52.7115 85.0215 53.1596C85.0215 53.6099 84.9254 54.0009 84.7334 54.3324C84.5437 54.6616 84.2636 54.9165 83.8932 55.0971C83.5229 55.2754 83.0679 55.3646 82.5284 55.3646H80.6526V54.3084H82.3569C82.6724 54.3084 82.9308 54.2649 83.1319 54.178C83.3331 54.0889 83.4817 53.9597 83.5777 53.7905C83.6761 53.6191 83.7252 53.4087 83.7252 53.1596C83.7252 52.9104 83.6761 52.6977 83.5777 52.5217C83.4794 52.3434 83.3297 52.2085 83.1285 52.1171C82.9273 52.0233 82.6679 51.9765 82.3501 51.9765H81.1841V57.9365H79.9119ZM83.54 54.7542L85.2787 57.9365H83.8589L82.1512 54.7542H83.54Z" fill="#495AA1"/>
<path d="M74.0461 57.9365V50.9134H78.6139V51.9799H75.3184V53.8866H78.3773V54.9531H75.3184V56.87H78.6414V57.9365H74.0461Z" fill="#495AA1"/>
<path d="M67.3625 51.9799V50.9134H72.966V51.9799H70.7952V57.9365H69.5333V51.9799H67.3625Z" fill="#495AA1"/>
<path d="M62.4338 57.9365H61.0758L63.5483 50.9134H65.1189L67.5948 57.9365H66.2368L64.361 52.3537H64.3062L62.4338 57.9365ZM62.4784 55.1828H66.182V56.2047H62.4784V55.1828Z" fill="#495AA1"/>
<path d="M52.7804 50.9134H54.3373L56.4223 56.0024H56.5046L58.5896 50.9134H60.1465V57.9365H58.9256V53.1115H58.8605L56.9195 57.9159H56.0073L54.0664 53.1013H54.0012V57.9365H52.7804V50.9134Z" fill="#495AA1"/>
<path d="M42.1403 57.9365L40.1582 50.9134H41.5265L42.7919 56.0744H42.857L44.2082 50.9134H45.453L46.8075 56.0779H46.8693L48.1347 50.9134H49.5029L47.5208 57.9365H46.2657L44.8597 53.0087H44.8049L43.3954 57.9365H42.1403Z" fill="#495AA1"/>
<path d="M35.2363 57.9365H33.8783L36.3508 50.9134H37.9214L40.3973 57.9365H39.0393L37.1635 52.3537H37.1087L35.2363 57.9365ZM35.2809 55.1828H38.9845V56.2047H35.2809V55.1828Z" fill="#495AA1"/>
<path d="M28.0537 57.9365V50.9134H30.6874C31.2269 50.9134 31.6796 51.0071 32.0454 51.1946C32.4134 51.382 32.6912 51.645 32.8787 51.9833C33.0684 52.3194 33.1633 52.7115 33.1633 53.1596C33.1633 53.6099 33.0673 54.0009 32.8753 54.3324C32.6855 54.6616 32.4054 54.9165 32.0351 55.0971C31.6647 55.2754 31.2098 55.3646 30.6702 55.3646H28.7944V54.3084H30.4988C30.8143 54.3084 31.0726 54.2649 31.2738 54.178C31.475 54.0889 31.6236 53.9597 31.7196 53.7905C31.8179 53.6191 31.8671 53.4087 31.8671 53.1596C31.8671 52.9104 31.8179 52.6977 31.7196 52.5217C31.6213 52.3434 31.4715 52.2085 31.2704 52.1171C31.0692 52.0233 30.8097 51.9765 30.4919 51.9765H29.326V57.9365H28.0537ZM31.6819 54.7542L33.4205 57.9365H32.0008L30.293 54.7542H31.6819Z" fill="#495AA1"/>
</svg>
